<?xml version="1.0" standalone="no"?>
<!DOCTYPE svg PUBLIC "-//W3C//DTD SVG 20010904//EN"
 "http://www.w3.org/TR/2001/REC-SVG-20010904/DTD/svg10.dtd">
<svg version="1.0" xmlns="http://www.w3.org/2000/svg"
 width="300.000000pt" height="212.000000pt" viewBox="0 0 300.000000 212.000000"
 preserveAspectRatio="xMidYMid meet">
<metadata>
Created by potrace 1.10, written by Peter Selinger 2001-2011
</metadata>
<g transform="translate(0.000000,212.000000) scale(0.100000,-0.100000)"
fill="#000000" stroke="none">
<path d="M640 1269 c-34 -9 -100 -71 -100 -93 0 -6 10 1 23 15 36 43 73 62
123 61 54 -1 84 -10 84 -23 0 -6 -7 -6 -19 1 -14 7 -22 7 -26 0 -4 -7 -12 -7
-18 -2 -13 9 -54 8 -64 -2 -4 -3 -1 -12 5 -18 9 -9 12 -9 12 0 0 18 35 15 51
-5 12 -14 12 -16 -1 -11 -17 5 -70 -43 -70 -66 0 -8 10 -16 23 -18 15 -2 18
-6 10 -11 -8 -5 -21 1 -35 16 -24 25 -48 26 -48 0 0 -8 6 -13 13 -10 6 2 17
-3 23 -11 12 -16 114 -25 114 -10 0 5 5 6 10 3 6 -4 7 -11 4 -17 -4 -6 2 -5
15 2 12 6 19 15 16 20 -3 4 5 6 17 2 l22 -5 -22 35 c-24 38 -28 78 -12 108 9
16 4 20 -44 34 -60 18 -58 18 -106 5z m93 -133 c-4 -17 -10 -22 -24 -19 -32 9
-23 43 11 43 13 0 16 -6 13 -24z"/>
<path d="M589 1178 c0 -13 -3 -18 -5 -11 -8 18 -34 4 -34 -17 0 -11 -5 -22
-11 -25 -23 -15 4 -160 29 -152 5 1 20 -11 35 -28 18 -20 27 -25 27 -15 1 8 3
23 5 33 2 12 -1 17 -10 13 -8 -3 -18 7 -25 25 -7 16 -16 29 -21 29 -5 0 -6 6
-3 14 4 11 0 13 -15 9 -16 -4 -21 -1 -21 16 0 18 3 19 25 11 14 -5 25 -6 25
-1 0 5 -7 11 -15 15 -17 6 -21 47 -4 44 7 -2 18 12 25 30 8 19 10 32 4 32 -5
0 -10 -10 -11 -22z"/>
<path d="M513 1126 c-8 -37 -8 -67 -2 -97 6 -24 8 -51 6 -61 -6 -22 47 -76 98
-99 48 -22 123 -24 169 -5 44 18 105 73 104 94 0 9 1 23 3 31 2 7 -2 16 -8 18
-8 3 -13 -3 -13 -15 0 -45 -108 -112 -180 -112 -32 0 -100 32 -122 56 -43 49
-60 141 -38 200 6 15 7 31 2 36 -4 4 -13 -16 -19 -46z"/>
<path d="M976 1172 c-3 -4 -5 -45 -5 -90 l0 -82 54 0 c35 0 59 5 69 16 20 19
21 63 2 70 -12 5 -13 11 -3 31 10 22 8 28 -12 44 -23 19 -95 27 -105 11z m87
-36 c7 -19 -1 -26 -30 -26 -16 0 -23 6 -23 20 0 14 7 20 24 20 13 0 26 -6 29
-14z m10 -68 c8 -24 -5 -38 -34 -38 -24 0 -29 4 -29 25 0 21 5 25 29 25 16 0
31 -6 34 -12z"/>
<path d="M1120 1175 c0 -3 14 -27 30 -53 19 -31 30 -63 30 -86 0 -29 4 -36 20
-36 17 0 20 7 20 39 0 23 10 57 25 82 29 51 30 59 11 59 -8 0 -24 -16 -37 -36
l-22 -37 -19 37 c-12 23 -26 36 -38 36 -11 0 -20 -2 -20 -5z"/>
<path d="M1280 1159 c0 -14 7 -19 25 -19 24 0 25 -2 25 -70 0 -56 3 -70 15
-70 12 0 15 14 15 70 0 68 1 70 25 70 18 0 25 5 25 19 0 16 -8 19 -65 19 -57
0 -65 -3 -65 -19z"/>
<path d="M1440 1100 c0 -44 0 -83 0 -87 0 -14 113 -9 118 5 2 8 -10 12 -42 12
-42 0 -46 2 -46 25 0 22 4 25 35 25 24 0 35 5 35 15 0 10 -11 15 -35 15 -27 0
-35 4 -35 18 0 14 7 17 40 14 35 -4 40 -2 40 17 0 19 -6 21 -55 21 l-55 0 0
-80z"/>
<path d="M1570 1165 c0 -8 7 -48 17 -90 14 -66 19 -75 39 -75 18 0 23 7 29 43
8 49 24 84 25 53 0 -10 5 -36 12 -58 9 -31 16 -38 32 -36 17 2 24 17 39 86 10
46 16 86 13 89 -15 16 -35 -11 -41 -56 -8 -62 -21 -66 -29 -8 -4 23 -10 48
-15 56 -16 24 -39 4 -46 -41 -11 -68 -21 -76 -29 -23 -4 26 -10 54 -13 61 -7
19 -33 18 -33 -1z"/>
<path d="M1807 1173 c-4 -3 -7 -44 -7 -90 l0 -83 60 0 c47 0 60 3 60 15 0 11
-11 15 -40 15 -36 0 -40 2 -40 26 0 25 2 26 35 20 31 -6 35 -4 35 14 0 16 -6
20 -35 20 -24 0 -35 5 -35 15 0 11 11 15 40 15 33 0 40 3 40 20 0 18 -7 20
-53 20 -30 0 -57 -3 -60 -7z"/>
<path d="M1950 1090 l0 -90 53 0 c40 0 58 5 70 18 21 23 22 46 2 66 -13 13
-14 19 -3 36 11 19 10 24 -11 41 -15 12 -39 19 -67 19 l-44 0 0 -90z m88 38
c3 -13 -3 -18 -22 -18 -20 0 -26 5 -26 21 0 15 5 20 22 17 13 -2 24 -11 26
-20z m7 -73 c0 -14 -8 -21 -27 -23 -24 -3 -28 0 -28 23 0 23 4 26 28 23 19 -2
27 -9 27 -23z"/>
<path d="M2127 1162 c-20 -22 -22 -56 -4 -69 6 -6 26 -15 42 -20 17 -5 30 -16
30 -24 0 -20 -34 -23 -54 -5 -16 14 -20 15 -30 2 -16 -19 22 -46 65 -46 70 0
85 82 19 102 -63 20 -60 17 -43 34 13 13 20 14 38 4 18 -10 24 -9 31 1 22 35
-65 53 -94 21z"/>
<path d="M2250 1160 c0 -15 7 -20 25 -20 24 0 25 -2 25 -71 0 -61 2 -70 17
-67 14 2 16 14 14 71 -2 66 -2 67 23 67 19 0 26 5 26 20 0 18 -7 20 -65 20
-58 0 -65 -2 -65 -20z"/>
<path d="M2410 1100 c0 -44 -1 -83 -2 -87 -2 -5 25 -9 60 -11 51 -2 62 0 62
13 0 11 -11 15 -45 15 -42 0 -45 2 -45 26 0 25 2 26 35 21 30 -5 35 -3 35 14
0 15 -7 19 -35 19 -24 0 -35 5 -35 15 0 11 11 15 40 15 33 0 40 3 40 20 0 18
-7 20 -55 20 l-55 0 0 -80z"/>
<path d="M2550 1090 c0 -83 1 -90 20 -90 16 0 20 7 20 35 0 48 33 50 46 3 7
-23 17 -34 32 -36 20 -3 21 -1 10 30 -6 18 -15 38 -20 44 -5 7 -2 16 7 24 40
33 -2 80 -72 80 l-43 0 0 -90z m88 46 c10 -11 -9 -36 -28 -36 -15 0 -20 7 -20
24 0 20 4 24 21 21 12 -3 24 -7 27 -9z"/>
<path d="M802 1073 c-6 -2 -9 -9 -6 -15 3 -5 0 -9 -7 -7 -25 3 -39 -1 -39 -11
0 -5 12 -10 26 -10 23 0 25 -3 19 -27 -3 -14 -25 -43 -48 -64 -26 -23 -36 -38
-27 -39 18 0 51 21 102 67 l38 33 -25 16 c-32 21 -34 48 -3 38 20 -6 21 -5 9
10 -14 17 -18 18 -39 9z"/>
<path d="M590 1043 c0 -7 7 -16 15 -19 8 -4 15 -12 15 -19 0 -7 5 -15 12 -17
6 -2 13 -19 14 -38 3 -38 27 -61 32 -30 2 11 8 20 13 20 20 0 7 26 -22 43 -25
14 -30 22 -27 42 3 14 2 25 -1 26 -41 5 -51 4 -51 -8z"/>
</g>
</svg>
